<?xml version="1.0" standalone="no"?>
<!DOCTYPE svg PUBLIC "-//W3C//DTD SVG 20010904//EN"
 "http://www.w3.org/TR/2001/REC-SVG-20010904/DTD/svg10.dtd">
<svg version="1.0" xmlns="http://www.w3.org/2000/svg"
 width="260.000000pt" height="260.000000pt" viewBox="0 0 260.000000 260.000000"
 preserveAspectRatio="xMidYMid meet">
<metadata>
Created by potrace 1.11, written by Peter Selinger 2001-2013
</metadata>
<g transform="translate(0.000000,260.000000) scale(0.100000,-0.100000)"
fill="#000000" stroke="none">
<path d="M1218 2408 c-5 -35 16 -138 39 -188 l21 -44 -29 -41 c-43 -59 -187
-196 -265 -252 -108 -76 -155 -105 -161 -99 -4 4 -3 10 3 14 16 10 81 129 157
287 37 77 74 152 81 167 8 14 12 29 8 32 -15 16 -32 1 -52 -46 -28 -66 -142
-300 -153 -313 -4 -5 -31 -50 -59 -99 -42 -73 -60 -94 -105 -123 -64 -41 -371
-193 -390 -193 -12 0 -14 -5 -12 -27 1 -10 26 -5 69 15 19 8 37 16 40 16 13 4
142 69 209 105 41 23 79 41 85 41 7 0 8 -3 1 -8 -6 -4 -40 -45 -77 -92 -68
-88 -158 -181 -216 -224 l-33 -24 -42 23 c-81 45 -217 63 -217 29 0 -10 13
-14 45 -14 46 0 175 -37 175 -50 0 -18 -105 -64 -121 -54 -5 3 -9 1 -9 -4 0
-5 -20 -8 -45 -6 -33 2 -45 0 -45 -10 0 -19 17 -24 73 -19 51 4 140 34 172 57
16 11 22 10 44 -8 43 -35 211 -206 211 -215 0 -4 10 -20 23 -34 61 -70 75
-101 29 -69 -48 35 -355 180 -369 175 -22 -9 -15 -20 24 -38 260 -121 415
-206 439 -242 66 -98 253 -460 254 -490 0 -5 9 -19 20 -33 34 -44 34 1 0 76
-48 107 -143 293 -183 359 -20 32 -35 61 -33 62 4 4 113 -67 171 -112 106 -81
190 -160 241 -228 l44 -59 -19 -37 c-42 -82 -57 -211 -25 -211 10 0 14 12 14
44 0 40 8 74 32 139 8 21 13 25 24 16 8 -6 12 -15 9 -19 -3 -5 -1 -11 4 -14
11 -7 24 -69 26 -121 1 -28 5 -40 15 -40 31 0 20 108 -21 201 l-20 45 35 48
c55 75 183 192 302 275 60 42 115 81 122 86 22 19 13 -7 -27 -71 -43 -72 -132
-246 -184 -361 -29 -63 -33 -79 -22 -88 10 -9 17 -2 31 32 71 167 257 505 298
541 11 10 112 63 223 119 112 55 205 104 208 108 11 17 -32 15 -70 -4 -22 -11
-43 -19 -47 -18 -5 1 -8 -2 -8 -8 0 -5 -3 -9 -7 -8 -9 2 -230 -108 -250 -124
-26 -21 -12 5 34 65 78 102 162 190 236 247 l28 22 69 -30 c69 -32 165 -47
191 -32 28 18 7 24 -113 33 -10 1 -18 5 -18 9 0 4 -3 7 -7 6 -17 -4 -86 33
-77 41 17 17 133 51 173 51 22 0 43 5 46 10 8 14 -34 29 -65 23 -14 -3 -34 -6
-45 -8 -27 -4 -52 -13 -103 -38 -38 -18 -45 -19 -69 -6 -40 21 -173 156 -241
246 l-60 79 182 -91 c99 -50 187 -90 195 -90 32 0 19 36 -15 41 -16 2 -287
137 -351 174 -36 21 -60 44 -80 77 -15 27 -31 50 -35 54 -4 3 -60 108 -124
235 -64 126 -121 229 -127 229 -14 0 -12 -14 7 -59 7 -17 14 -34 15 -38 3 -14
122 -243 132 -254 5 -6 6 -14 2 -17 -3 -4 -1 -7 5 -7 6 0 14 -10 18 -22 3 -12
20 -43 35 -69 16 -25 29 -49 29 -52 0 -13 -208 136 -285 203 -58 51 -132 129
-161 172 l-25 36 19 44 c29 66 33 79 39 139 3 38 1 59 -7 64 -18 11 -22 0 -25
-58 -2 -30 -13 -77 -25 -103 l-22 -49 -20 43 c-11 24 -22 71 -26 104 -7 62
-27 89 -34 46z m107 -297 c45 -64 173 -185 259 -246 15 -11 33 -25 40 -30 6
-6 52 -36 101 -68 124 -79 125 -80 125 -94 0 -7 4 -13 8 -13 4 0 15 -13 25
-29 45 -77 197 -247 287 -320 24 -21 25 -21 5 -32 -54 -30 -221 -218 -308
-345 -18 -27 -59 -61 -120 -99 -177 -112 -345 -254 -421 -357 l-28 -37 -41 52
c-60 76 -139 149 -252 233 -128 95 -134 99 -195 133 -19 11 -51 43 -70 73 -19
29 -37 55 -40 58 -3 3 -27 34 -55 70 -56 73 -167 188 -208 214 l-26 18 47 37
c64 51 175 175 244 274 58 82 96 127 110 127 13 0 220 145 264 185 6 5 34 29
62 53 28 23 74 71 103 107 29 36 55 65 58 65 3 0 15 -13 26 -29z"/>
<path d="M971 1713 c-21 -15 -6 -30 37 -36 39 -6 68 -29 70 -55 5 -54 3 -653
-2 -670 -7 -20 -35 -35 -89 -47 -20 -4 -27 -11 -25 -23 3 -15 23 -17 213 -16
177 0 219 3 269 19 225 71 271 326 76 414 -25 11 -53 21 -62 21 -26 0 -22 17
6 24 22 5 70 47 105 90 7 10 15 43 18 75 10 102 -50 176 -162 201 -70 16 -433
19 -454 3z m413 -63 c62 -34 90 -106 73 -185 -16 -77 -75 -111 -199 -119 -48
-3 -58 -1 -59 13 -1 9 -1 77 0 151 1 116 3 137 19 148 23 18 129 13 166 -8z
m-4 -367 c82 -26 130 -91 130 -175 0 -95 -56 -167 -142 -184 -90 -17 -141 -5
-159 38 -9 23 -17 269 -10 330 1 9 147 2 181 -9z"/>
</g>
</svg>
